<?xml version="1.0" ?><svg id="레이어_1" style="enable-background:new 0 0 100 100;" version="1.1" viewBox="0 0 100 100" xml:space="preserve" xmlns="http://www.w3.org/2000/svg" xmlns:xlink="http://www.w3.org/1999/xlink"><g id="레이어_7"><path d="M42.2,78c-0.6,0-1.1,0-1.7-0.1C27.1,76.9,17,65,18.1,51.4c1-13.6,12.8-23.8,26.2-22.7c8.8,0.7,16.5,6.1,20.2,14.2   c0.5,1.1,0,2.5-1.1,3c-1.1,0.5-2.4,0-2.9-1.1c-4.7-10.2-16.7-14.6-26.8-9.8c-6.6,3.1-11,9.6-11.5,16.9c-0.4,5.4,1.4,10.7,4.9,14.7   c7.3,8.5,20.1,9.4,28.4,2c2.9-2.6,5-6,6.1-9.8c0.3-1.2,1.5-1.9,2.7-1.5c1.2,0.3,1.8,1.5,1.5,2.7C62.8,70.7,53.1,78,42.2,78z"/><path d="M76.5,33c-3,0-5.4-2.5-5.4-5.5c0-3,2.5-5.5,5.5-5.5c3,0,5.4,2.5,5.4,5.5C82,30.6,79.5,33,76.5,33z M76.5,26.4   c-0.6,0-1.1,0.5-1.1,1.1s0.5,1.1,1.1,1.1c0.6,0,1.1-0.5,1.1-1.1c0,0,0,0,0,0C77.6,26.9,77.1,26.4,76.5,26.4z"/></g></svg>