<?xml version="1.0" ?><svg viewBox="0 0 64 64" xmlns="http://www.w3.org/2000/svg"><title/><g id="Rain"><path d="M55.9775,28.2549A12.015,12.015,0,0,0,44,17a12.1931,12.1931,0,0,0-1.68.1162,14.9911,14.9911,0,0,0-27.458,1.8848A8.01,8.01,0,0,0,7,27a7.8027,7.8027,0,0,0,.0537.9165A9.0632,9.0632,0,0,0,2,36a8.8759,8.8759,0,0,0,1.2188,4.5083A1,1,0,0,0,4.08,41H59.74a.9993.9993,0,0,0,.8194-.4268A7.942,7.942,0,0,0,62,36,8.03,8.03,0,0,0,55.9775,28.2549Z" style="fill:#7cc9f2"/><path d="M9.6016,44.5684c-.3448.37-3.3682,3.6894-3.3682,6.3315a4.1,4.1,0,1,0,8.2,0c0-2.6421-3.0244-5.9619-3.3691-6.332A1.0311,1.0311,0,0,0,9.6016,44.5684Z" style="fill:#b2ebf2"/><path d="M24.2686,44.5684C23.9238,44.938,20.9,48.2578,20.9,50.9a4.1,4.1,0,1,0,8.1992,0c0-2.6421-3.0234-5.9619-3.3682-6.3315A1.03,1.03,0,0,0,24.2686,44.5684Z" style="fill:#b2ebf2"/><path d="M38.2686,44.5684C37.9238,44.938,34.9,48.2578,34.9,50.9a4.1,4.1,0,1,0,8.1992,0c0-2.6421-3.0234-5.9619-3.3682-6.3315A1.03,1.03,0,0,0,38.2686,44.5684Z" style="fill:#b2ebf2"/><path d="M54.3984,44.5684a1,1,0,0,0-1.4629,0c-.3447.37-3.3691,3.69-3.3691,6.332a4.1,4.1,0,1,0,8.2,0C57.7666,48.2578,54.7432,44.938,54.3984,44.5684Z" style="fill:#b2ebf2"/><path d="M55.9775,28.2549A12.015,12.015,0,0,0,44,17a12.1931,12.1931,0,0,0-1.68.1162,14.9911,14.9911,0,0,0-27.458,1.8848A8.01,8.01,0,0,0,7,27a7.8027,7.8027,0,0,0,.0537.9165A9.0632,9.0632,0,0,0,2,36a8.8759,8.8759,0,0,0,1.2188,4.5083A1,1,0,0,0,4.08,41H59.74a.9993.9993,0,0,0,.8194-.4268A7.942,7.942,0,0,0,62,36,8.03,8.03,0,0,0,55.9775,28.2549ZM59.1934,39H4.6787A6.9072,6.9072,0,0,1,4,36a7.0488,7.0488,0,0,1,4.5254-6.5454,1.0005,1.0005,0,0,0,.62-1.1543A5.9193,5.9193,0,0,1,9,27a6.0066,6.0066,0,0,1,6-6,4.4553,4.4553,0,0,1,.4756.0244,1.01,1.01,0,0,0,1.0635-.7119,12.9919,12.9919,0,0,1,24.3-1.6694,1.0012,1.0012,0,0,0,1.1152.5659A10.0112,10.0112,0,0,1,54,29.08a1,1,0,0,0,.8594.99A6.0124,6.0124,0,0,1,60,36,5.9447,5.9447,0,0,1,59.1934,39Z" style="fill:#776d8a"/><path d="M9.6016,44.5684c-.3448.37-3.3682,3.6894-3.3682,6.3315a4.1,4.1,0,1,0,8.2,0c0-2.6421-3.0244-5.9619-3.3691-6.332A1.0311,1.0311,0,0,0,9.6016,44.5684ZM10.333,53a2.1018,2.1018,0,0,1-2.1-2.1c0-1.1143,1.0977-2.8525,2.0977-4.11.9023,1.1376,2.1025,2.9179,2.1025,4.11A2.1026,2.1026,0,0,1,10.333,53Z" style="fill:#776d8a"/><path d="M24.2686,44.5684C23.9238,44.938,20.9,48.2578,20.9,50.9a4.1,4.1,0,1,0,8.1992,0c0-2.6421-3.0234-5.9619-3.3682-6.3315A1.03,1.03,0,0,0,24.2686,44.5684ZM25,53a2.1018,2.1018,0,0,1-2.1-2.1c0-1.1143,1.0976-2.8525,2.0976-4.11C25.9,47.9272,27.1,49.7075,27.1,50.9A2.1018,2.1018,0,0,1,25,53Z" style="fill:#776d8a"/><path d="M38.2686,44.5684C37.9238,44.938,34.9,48.2578,34.9,50.9a4.1,4.1,0,1,0,8.1992,0c0-2.6421-3.0234-5.9619-3.3682-6.3315A1.03,1.03,0,0,0,38.2686,44.5684ZM39,53a2.1018,2.1018,0,0,1-2.1-2.1c0-1.1143,1.0976-2.8525,2.0976-4.11C39.9,47.9272,41.1,49.7075,41.1,50.9A2.1018,2.1018,0,0,1,39,53Z" style="fill:#776d8a"/><path d="M53.667,44.25a1.0012,1.0012,0,0,0-.7315.3179c-.3447.37-3.3691,3.69-3.3691,6.332a4.1,4.1,0,1,0,8.2,0c0-2.6421-3.0234-5.9619-3.3682-6.3315A1,1,0,0,0,53.667,44.25Zm0,8.75a2.1026,2.1026,0,0,1-2.1006-2.1c0-1.1143,1.0977-2.8525,2.0986-4.11.9024,1.1376,2.1016,2.9179,2.1016,4.11A2.1018,2.1018,0,0,1,53.667,53Z" style="fill:#776d8a"/></g></svg>